<svg xmlns="http://www.w3.org/2000/svg" viewBox="0 0 377.57 425.77"><defs><style>.cls-1{fill:#37474f;}.cls-2{fill:#455a64;}.cls-22,.cls-3,.cls-30{fill:#27debf;}.cls-17,.cls-18,.cls-22,.cls-4{opacity:0.6;}.cls-14,.cls-15,.cls-5{opacity:0.5;}.cls-25,.cls-6{opacity:0.4;}.cls-7{opacity:0.15;}.cls-16,.cls-8{fill:#263238;}.cls-9{fill:#e6e6e6;}.cls-10{fill:#e0e0e0;}.cls-11{fill:#f5f5f5;}.cls-12{fill:#ebebeb;}.cls-13,.cls-14,.cls-17,.cls-19,.cls-29{fill:#fff;}.cls-16,.cls-21{opacity:0.9;}.cls-19,.cls-20{opacity:0.8;}.cls-23{fill:#ffa8a7;}.cls-24{fill:#fafafa;}.cls-26{fill:#f28f8f;}.cls-27,.cls-28{fill:none;stroke:#263238;stroke-miterlimit:10;}.cls-27{stroke-width:1.21px;}.cls-28{stroke-width:1.03px;}.cls-29{opacity:0.75;}.cls-30{opacity:0.1;}.cls-31{opacity:0.3;}.cls-32{opacity:0.2;}</style></defs><g id="Layer_2" data-name="Layer 2"><g id="Speech_Bubble" data-name="Speech Bubble"><g id="Desk"><g id="Table"><path class="cls-1" d="M246.62,261.49V372.43a2.45,2.45,0,0,1-1.12,1.94l-2.38,1.38a2.52,2.52,0,0,1-2.24,0l-2.38-1.38a2.45,2.45,0,0,1-1.12-1.94V261.49c0-.71.5-1,1.12-.65l2.38,1.38a2.52,2.52,0,0,0,2.24,0l2.38-1.38C246.12,260.49,246.62,260.78,246.62,261.49Z"/><path class="cls-2" d="M240.88,375.75l-2.38-1.38a2.45,2.45,0,0,1-1.12-1.94V261.49c0-.71.5-1,1.12-.65l2.38,1.38a2.45,2.45,0,0,1,1.12,1.94V375.1C242,375.81,241.5,376.1,240.88,375.75Z"/><path class="cls-1" d="M348.14,202.85V313.79a2.51,2.51,0,0,1-1.12,1.94l-2.39,1.37a2.44,2.44,0,0,1-2.23,0L340,315.73a2.48,2.48,0,0,1-1.12-1.94V202.85c0-.72.5-1,1.12-.65l2.38,1.37a2.46,2.46,0,0,0,2.24,0L347,202.2C347.63,201.84,348.14,202.13,348.14,202.85Z"/><path class="cls-2" d="M342.4,317.1,340,315.73a2.48,2.48,0,0,1-1.12-1.94V202.85c0-.72.5-1,1.12-.65l2.38,1.37a2.51,2.51,0,0,1,1.12,1.94v111C343.52,317.17,343,317.46,342.4,317.1Z"/><path class="cls-1" d="M109.91,182.6V293.54a2.47,2.47,0,0,1-1.12,1.94l-2.38,1.37a2.46,2.46,0,0,1-2.24,0l-2.38-1.37a2.47,2.47,0,0,1-1.12-1.94V182.6c0-.72.5-1,1.12-.65l2.38,1.38a2.52,2.52,0,0,0,2.24,0l2.38-1.38C109.41,181.59,109.91,181.88,109.91,182.6Z"/><path class="cls-2" d="M104.17,296.85l-2.38-1.37a2.47,2.47,0,0,1-1.12-1.94V182.6c0-.72.5-1,1.12-.65l2.38,1.38a2.45,2.45,0,0,1,1.12,1.93v111C105.29,296.92,104.79,297.21,104.17,296.85Z"/><path class="cls-3" d="M370.22,210.74v-.81a4.51,4.51,0,0,0-2-3.53l-179-103.26a4.51,4.51,0,0,0-4.08,0L75,166.75a4.49,4.49,0,0,0-2,3.53v.81a4.49,4.49,0,0,0,2,3.53L254,277.87a4.51,4.51,0,0,0,4.08,0l110.13-63.6A4.51,4.51,0,0,0,370.22,210.74Z"/><path class="cls-4" d="M370.22,210.74v-.81a4.51,4.51,0,0,0-2-3.53l-179-103.26a4.51,4.51,0,0,0-4.08,0L75,166.75a4.49,4.49,0,0,0-2,3.53v.81a4.49,4.49,0,0,0,2,3.53L254,277.87a4.51,4.51,0,0,0,4.08,0l110.13-63.6A4.51,4.51,0,0,0,370.22,210.74Z"/><path class="cls-3" d="M256,272.84v5.52a4.33,4.33,0,0,0,2-.48l110.12-63.61a4.51,4.51,0,0,0,2-3.53v-.81a4.5,4.5,0,0,0-1.66-3.27c.74.63.61,1.51-.38,2.09L258.06,272.36A4.1,4.1,0,0,1,256,272.84Z"/><path class="cls-5" d="M256,272.84v5.52a4.33,4.33,0,0,0,2-.48l110.12-63.61a4.51,4.51,0,0,0,2-3.53v-.81a4.5,4.5,0,0,0-1.66-3.27c.74.63.61,1.51-.38,2.09L258.06,272.36A4.1,4.1,0,0,1,256,272.84Z"/><path class="cls-3" d="M368.19,208.75l-110.13,63.6a4.51,4.51,0,0,1-4.08,0L75,169.1a1.24,1.24,0,0,1,0-2.35l110.12-63.61a4.51,4.51,0,0,1,4.08,0l179,103.26A1.24,1.24,0,0,1,368.19,208.75Z"/><path class="cls-6" d="M368.19,208.75l-110.13,63.6a4.51,4.51,0,0,1-4.08,0L75,169.1a1.24,1.24,0,0,1,0-2.35l110.12-63.61a4.51,4.51,0,0,1,4.08,0l179,103.26A1.24,1.24,0,0,1,368.19,208.75Z"/></g><g id="Keyboard"><path id="Shadow" class="cls-7" d="M242.49,207.36,216.4,222.47a3.2,3.2,0,0,1-2.92,0L136.39,178a.89.89,0,0,1,0-1.69l26.09-15.11a3.22,3.22,0,0,1,2.93,0l77.08,44.44A.89.89,0,0,1,242.49,207.36Z"/><g id="Keyboard-2" data-name="Keyboard"><path class="cls-8" d="M138,173.66a1,1,0,0,1,.61-.85l24.51-14.15a3.23,3.23,0,0,1,2.92,0l74.8,43.25a1,1,0,0,1,.61.84v2.57a1,1,0,0,1-.61.85l-24.5,14.15a3.25,3.25,0,0,1-2.93,0l-74.8-43.18a1,1,0,0,1-.61-.84Z"/><path class="cls-1" d="M216.31,217.69l24.5-14.08a.89.89,0,0,0,0-1.69L166,158.67a3.23,3.23,0,0,0-2.92,0l-24.51,14.15a.89.89,0,0,0,0,1.69l74.8,43.19A3.25,3.25,0,0,0,216.31,217.69Z"/><path class="cls-8" d="M214.94,218v2.63a3,3,0,0,0,1.37-.34l24.49-14.15a1,1,0,0,0,.61-.84v-2.58a1,1,0,0,1-.61.84l-24.49,14.1A3,3,0,0,1,214.94,218Z"/><path class="cls-3" d="M142.51,173.85s0,0,0,0l2.42-1.4,3.3,1.9-2.45,1.44-3.28-1.89Zm3.8-2.2s0,0,0,0l2.42-1.4,2.59,1.5-2.45,1.44-2.58-1.49Zm.8,4.85s0,0,0,0l2.42-1.4,2.59,1.49L149.69,178l-2.58-1.49Zm3-7a.1.1,0,0,1,0,0l2.43-1.4,4.17,2.41-2.44,1.45-4.17-2.41Zm.09,4.44s0,0,0,0l2.42-1.4,2.06,1.18-2.45,1.45-2.05-1.18Zm.8,4.85s0,0,0,0l2.42-1.4,2.59,1.49-2.44,1.45L151,178.77Zm2.56-2.91s0,0,0,0l2.42-1.4,2.06,1.19L155.62,177l-2.06-1.18Zm.35-8.57a0,0,0,0,1,0,0l2.43-1.4,3.29,1.9-2.44,1.45-3.29-1.9Zm1,13.73a.05.05,0,0,1,0,0l2.42-1.4L176,190.35l-2.44,1.44L154.9,181Zm.7-8.37s0,0,0,0l2.42-1.4,2.06,1.18-2.45,1.45-2-1.18Zm1.33,5.15s0,0,0,0l2.42-1.4,2.06,1.19L159,179l-2-1.18Zm.78-12.7a.05.05,0,0,1,0,0l2.43-1.4,2,1.19-2.44,1.45-2-1.18Zm.8,4.84,0,0,2.43-1.4,2.05,1.19-2.44,1.45-2.05-1.19Zm.45,4.65s0,0,0,0l2.42-1.4,2.06,1.18L161,175.77,159,174.59Zm1.33,5.15s0,0,0,0l2.42-1.4,2.06,1.19-2.45,1.44-2-1.18Zm.78-12.7s0,0,0,0l2.43-1.39,2.05,1.18-2.44,1.45L161.07,167Zm.8,4.84s0,0,0,0l2.43-1.4,2.05,1.19-2.44,1.45-2-1.19Zm.45,4.65s0,0,0,0l2.42-1.4,2.06,1.18-2.45,1.45-2.05-1.18Zm0-14.09a.05.05,0,0,1,0,0l2.43-1.4,2.58,1.5-2.44,1.44-2.58-1.49Zm1.33,19.24s0,0,0,0l2.42-1.4,2.06,1.19-2.44,1.44-2-1.18Zm.78-12.7s0,0,0,0l2.43-1.39,2,1.18-2.44,1.45-2-1.18Zm.8,4.85s0,0,0,0l2.43-1.4,2.05,1.19L167.28,175l-2.05-1.19Zm.45,4.64s0,0,0,0l2.42-1.4,2.06,1.18-2.45,1.45-2.05-1.18ZM167,183.6s0,0,0,0l2.42-1.4,2.06,1.19-2.44,1.44L167,183.62Zm.66-18.09a0,0,0,0,1,0,0l2.43-1.41,2,1.19-2.44,1.45-2.05-1.19Zm.12,5.39s0,0,0,0l2.43-1.4,2.05,1.19-2.44,1.45-2.05-1.19Zm.8,4.84s0,0,0,0l2.43-1.4,2.05,1.19L170.64,177l-2-1.19Zm.45,4.65s0,0,0,0l2.42-1.4,2.06,1.18-2.45,1.45-2-1.18Zm1.33,5.15s0,0,0,0l2.42-1.4,2.06,1.19-2.45,1.44-2-1.18Zm.66-18.09s0,0,0,0l2.43-1.4,2.05,1.19-2.44,1.45L171,167.46Zm.12,5.39s0,0,0,0l2.43-1.4,2,1.18L173.2,174l-2-1.18Zm.8,4.85s0,0,0,0l2.43-1.4,2.05,1.19L174,178.89,172,177.7Zm.45,4.64s0,0,0,0l2.42-1.4,2.06,1.18-2.45,1.45-2-1.18Zm1.33,5.15s0,0,0,0l2.42-1.4,2.06,1.19-2.44,1.44-2.05-1.18Zm.66-18.09s0,0,0,0l2.43-1.4,2,1.19-2.44,1.45-2.05-1.19Zm.12,5.39s0,0,0,0l2.43-1.39,2.05,1.18L176.56,176l-2.05-1.18Zm.38,17.75v0l2.43-1.4,2.58,1.49L177.46,194l-2.58-1.49Zm.42-12.91,0,0,2.43-1.4,2.05,1.19-2.44,1.45-2.05-1.19Zm.45,4.65s0,0,0,0l2.42-1.4,2.06,1.18-2.45,1.45-2-1.18Zm1.33,5.15s0,0,0,0l2.43-1.4,2.05,1.19-2.45,1.44-2-1.18Zm.66-18.09a0,0,0,0,1,0,0l2.43-1.41,2.05,1.19-2.44,1.45-2.05-1.19Zm.12,5.39s0,0,0,0l2.43-1.4,2.05,1.19-2.44,1.45-2-1.19Zm.8,4.84,0,0,2.43-1.4,2,1.19-2.44,1.45-2.05-1.19Zm.11,13.22a0,0,0,0,1,0,0l2.43-1.4,2.58,1.49-2.44,1.45-2.58-1.49Zm.34-8.57s0,0,0,0l2.42-1.4,2.06,1.18-2.45,1.45-2-1.18Zm1.33,5.15s0,0,0,0l2.43-1.4,2.05,1.19-2.44,1.44-2.05-1.18Zm.78-12.7s0,0,0,0l2.43-1.4,2.05,1.18-2.44,1.45-2.05-1.18Zm.8,4.84,0,0,2.43-1.4,2.05,1.19-2.44,1.45L182,183.52Zm.45,4.65s0,0,0,0l2.42-1.4L187,187.9l-2.45,1.45-2-1.18Zm.1-14a0,0,0,0,1,0,0l2.43-1.4,2.05,1.18-2.44,1.45-2.05-1.18Zm.09,22.92s0,0,0,0l2.43-1.4,2.58,1.5-2.44,1.44L182.66,197Zm1.14-3.73s0,0,0,0l2.43-1.4,2.05,1.19-2.44,1.44-2.05-1.18Zm.78-12.7s0,0,0,0l2.43-1.39,2.05,1.18-2.44,1.45-2-1.19Zm.81,4.84v0l2.43-1.4,2,1.19-2.44,1.45-2.05-1.19Zm.44,4.65s0,0,0,0l2.42-1.4,2.06,1.18-2.45,1.45-2-1.18Zm.1-14a0,0,0,0,1,0,0l2.43-1.4,2,1.18L188,177.25l-2-1.18Zm.62,23.22s0,0,0,0l2.42-1.4,3.29,1.9-2.44,1.45-3.29-1.9Zm.61-4s0,0,0,0l2.43-1.4,6.47,3.74L193.64,199l-6.47-3.74Zm.78-12.7s0,0,0,0l2.43-1.4,2.05,1.19L190,183.74,188,182.55Zm.81,4.84s0,0,0,0l2.43-1.4,2.05,1.19-2.44,1.45-2.05-1.19Zm.44,4.65s0,0,0,0l2.43-1.4,2.05,1.18-2.44,1.45-2.05-1.18Zm.1-14a0,0,0,0,1,0,0l2.43-1.4,2.05,1.18-2.44,1.45L189.29,178Zm2,6.49s0,0,0,0l2.43-1.4,2.05,1.19-2.44,1.45-2.05-1.18Zm.55,17.86s0,0,0,0l2.43-1.41,2,1.19-2.44,1.45-2-1.19Zm.26-13s0,0,0,0l2.43-1.4,2,1.19-2.44,1.45-2-1.19Zm.44,4.65s0,0,0,0l2.43-1.4,1.87,1.08a1.53,1.53,0,0,0,1.21,0l3.19-1.84,2.4,1.39-6.23,3.64L192.56,194Zm.1-14s0,0,0,0l2.42-1.4,2,1.18-2.44,1.45-2-1.18Zm2,6.49a0,0,0,0,1,0,0l2.43-1.4,2,1.18-2.44,1.45-2.05-1.19Zm.55,17.86s0,0,0,0l2.43-1.4,2.05,1.19-2.44,1.45-2.05-1.19Zm.26-13s0,0,0,0l2.43-1.4L200,191l-2.44,1.45-2.05-1.19Zm2-8.55s0,0,0,0l2.42-1.4,2.06,1.19-2.45,1.45-2.05-1.19Zm.55,5.65s0,0,0,0l2.43-1.39,2.05,1.18-2.44,1.45L198,188.37Zm.55,17.86a.05.05,0,0,1,0,0l2.43-1.4,2,1.19-2.44,1.45-2-1.19Zm.44-4.14s0,0,0,0l2.43-1.4,2,1.19-2.45,1.44L199,202.1Zm1.82-17.43s0,0,0,0l2.42-1.4,2.06,1.19-2.45,1.45-2-1.19Zm.55,5.65s0,0,0,0l2.43-1.39,3.64,2.1L205,192.42l-3.64-2.11Zm1.26,18.26,0,0,2.42-1.4,5.42,3.13-2.44,1.45-5.42-3.13Zm.61-12.8s0,0,0,0l2.43-1.4,2.05,1.19L205.3,197l-2.05-1.18Zm.94-9.17,0,0,2.42-1.4,2.06,1.19-2.44,1.45-2.06-1.19Zm2.25,19.78s0,0,0,0l2.42-1.4,2.06,1.18-2.44,1.45-2.06-1.18Zm.17-8.67s0,0,0,0l2.43-1.39,2,1.18-2.44,1.45-2-1.18Zm.43-4.14,0,0,2.43-1.4,2,1.19-2.44,1.45-2-1.19Zm.51-5,0,0,2.42-1.4,2.06,1.19-2.44,1.45-2.05-1.19Zm1.81,23.91s0,0,0,0l2.42-1.4,2.06,1.19-2.44,1.45-2-1.19Zm.44-4.13s0,0,0,0l2.42-1.4,2.06,1.18-2.45,1.45-2-1.18Zm.17-8.67s0,0,0,0l2.43-1.4,2.05,1.19L212,200.84,210,199.66Zm.27,4.54a0,0,0,0,1,0,0l2.43-1.4,2,1.18-2.44,1.45-2-1.18Zm.17-8.68v0l2.43-1.4,2.05,1.19-2.44,1.45-2.05-1.19Zm1.24-4.6s0,0,0,0l2.43-1.4,2.05,1.19-2.44,1.45-2.05-1.19Zm1.07,23.48,0,0,6.22-3.59,2.06,1.18-6.24,3.65-2.05-1.19Zm.44-4.13s0,0,0,0l2.42-1.4,2.06,1.18-2.45,1.45-2.05-1.18Zm.44-4.13a0,0,0,0,1,0,0l2.43-1.4,2.05,1.18-2.44,1.45-2.05-1.18Zm.17-8.68v0l2.43-1.4,2,1.19-2.44,1.45-2-1.19ZM214,202a0,0,0,0,1,0,0l2.43-1.41,2.05,1.19-2.44,1.45L214,202Zm1-9.15,0,0,2.43-1.4,2,1.19-2.44,1.45-2-1.19Zm2,15.22s0,0,0,0l2.42-1.4,2,1.18L219,209.26l-2-1.18Zm.43-4.13a0,0,0,0,1,0,0l2.43-1.41,2,1.19-2.44,1.45-2-1.19Zm.44-4.14s0,0,0,0l2.42-1.4,2.06,1.19L219.89,201l-2-1.18Zm.54-5,0,0,2.43-1.4,2.05,1.19L220.43,196l-2.05-1.19ZM220.32,210s0,0,0,0l6.22-3.6,2.05,1.19-6.24,3.64L220.32,210Zm.43-4.13a0,0,0,0,1,0,0l2.43-1.41,2.05,1.19-2.44,1.45-2.05-1.19Zm.44-4.14,0,0,2.42-1.4,2.06,1.19-2.44,1.44-2.05-1.18Zm2.23-5.16a0,0,0,0,1,0,0l1-.61,2.06,1.18-1.06.66-2-1.18Zm1.13,7.1s0,0,0,0l2.42-1.4,2.06,1.19-2.44,1.44-2.05-1.18Zm2.23-5.16a0,0,0,0,1,0,0l1-.61,2.06,1.18-1.06.66-2-1.18Zm1.13,7.1s0,0,0,0l2.43-1.4,2,1.19L230,206.81l-2.05-1.18Zm2.23-5.16s0,0,0,0l1-.61,2.05,1.18-1.06.66-2-1.18Zm3.36,1.94s0,0,0,0l1-.61,2,1.18-1.06.66-2-1.18Z"/></g></g><g id="Device"><polygon id="Shadow-2" data-name="Shadow" class="cls-7" points="302.78 210.29 325.74 197.04 210.97 130.78 188.02 144.03 302.78 210.29"/><g id="Monitor"><path class="cls-9" d="M237.8,188.72l-16.39-9.47c-1.69-1-2.53-2.26-2.53-3.53s0-2.28,0-2.28l15.42-8.76a3.6,3.6,0,0,0,1.63-2.82v-20.2l28.62,16.53V178.4a3.6,3.6,0,0,1-1.63,2.82L250,188.72A13.52,13.52,0,0,1,237.8,188.72Z"/><path class="cls-10" d="M257.67,182v2.27l5.24-3a3.6,3.6,0,0,0,1.63-2.82V158.2l-5.45-3.15c-.11,1.38-.23,2.82-.35,4.21l3.83,2.21v15.79a3.6,3.6,0,0,1-1.63,2.82Z"/><path class="cls-11" d="M262.57,177.26a3.62,3.62,0,0,1-1.63,2.83L250,186.44a13.52,13.52,0,0,1-12.23,0L221.4,177c-3.38-1.95-3.38-5.11,0-7.06l10.91-6.36a3.62,3.62,0,0,0,1.63-2.83V144.93l28.63,16.54Z"/><path class="cls-12" d="M229,165.47h0l3.32-1.91a3.62,3.62,0,0,0,1.63-2.83V144.93l28.63,16.54v15.79a3.62,3.62,0,0,1-1.63,2.83L257.67,182Z"/><path class="cls-12" d="M218.87,173.44v2.28c0,1.28.85,2.55,2.53,3.53l16.39,9.47a12.32,12.32,0,0,0,5.84,1.45V187.9a12.32,12.32,0,0,1-5.84-1.45L221.4,177C219.72,176,218.87,174.72,218.87,173.44Z"/><path class="cls-2" d="M308.52,199.06a4.37,4.37,0,0,1-3.95-.08l-110.69-63.9a4.52,4.52,0,0,1-2-3.53V34.66a3.83,3.83,0,0,1,5.87-3.38l110.68,63.9a4.49,4.49,0,0,1,2,3.53V195.6A4.37,4.37,0,0,1,308.52,199.06Z"/><path class="cls-1" d="M304.57,199l-110.69-63.9a4.54,4.54,0,0,1-2-3.54V34.66c0-1.3.92-1.83,2-1.18L304.57,97.39a4.52,4.52,0,0,1,2,3.53V197.8C306.61,199.1,305.7,199.63,304.57,199Z"/><path class="cls-10" d="M304.87,199.38a3.81,3.81,0,0,0,5.57-3.54V185l-3.83,2.21v10.9C306.61,199.24,305.86,199.78,304.87,199.38Z"/><path class="cls-13" d="M306.61,187.16v10.89c0,1.3-.91,1.83-2,1.18l-110.69-63.9a4.54,4.54,0,0,1-2-3.54V120.9Z"/><path class="cls-3" d="M302.78,178.87V102.19a2.69,2.69,0,0,0-1.22-2.12L196.89,39.64c-.67-.39-1.22-.07-1.22.71V117a2.72,2.72,0,0,0,1.22,2.12l104.67,60.42C302.24,180,302.78,179.65,302.78,178.87Z"/><path class="cls-14" d="M302.78,178.87V102.19a2.69,2.69,0,0,0-1.22-2.12L196.89,39.64c-.67-.39-1.22-.07-1.22.71V117a2.72,2.72,0,0,0,1.22,2.12l104.67,60.42C302.24,180,302.78,179.65,302.78,178.87Z"/><path class="cls-2" d="M249.23,158.19a4.25,4.25,0,0,1,1.91,3.32c0,1.22-.86,1.71-1.91,1.1a4.22,4.22,0,0,1-1.92-3.31C247.31,158.08,248.17,157.58,249.23,158.19Z"/><path class="cls-8" d="M306,98.9a4.31,4.31,0,0,1,.6,2v86.24l3.83-2.21V98.71a4.18,4.18,0,0,0-.61-2Z"/></g></g><g id="Window"><g id="Window-2" data-name="Window"><path class="cls-2" d="M210,14.66a1,1,0,0,1,0-.18s0,0,0,0a.84.84,0,0,1,0-.17.71.71,0,0,1,.11-.25l.07-.11.05-.07a.49.49,0,0,1,.13-.12l0,0a.51.51,0,0,1,.16-.09,1.42,1.42,0,0,1,1.31.16L341.07,88.32A4.31,4.31,0,0,1,343,91.7v93.94a1.31,1.31,0,0,1-.7,1.17l-.08.05-.11.06a.52.52,0,0,1-.16.06l-.25,0a1.28,1.28,0,0,1-.65-.18l-.05,0h0l-1.86-1.08L211.89,112.25a4.32,4.32,0,0,1-1.95-3.38v-94C209.94,14.82,210,14.73,210,14.66Z"/><path class="cls-3" d="M210.58,13.61a1.42,1.42,0,0,1,1.31.16L341.07,88.32A4.31,4.31,0,0,1,343,91.7v6.38l2.49-1.46V90.29a4.31,4.31,0,0,0-1.94-3.38L214.39,12.36a1.37,1.37,0,0,0-1.42-.11C212.62,12.46,211,13.39,210.58,13.61Z"/><path class="cls-3" d="M210,14.89c0-1.23.87-1.73,2-1.11L341.07,88.32A4.31,4.31,0,0,1,343,91.7v6.38L210,21.29Z"/><g class="cls-15"><path class="cls-13" d="M211.9,13.78,341.07,88.32a4,4,0,0,1,1.37,1.45l2.48-1.44a3.88,3.88,0,0,0-1.36-1.42L214.39,12.36a1.37,1.37,0,0,0-1.42-.11c-.35.21-2,1.13-2.38,1.35A1.44,1.44,0,0,1,211.9,13.78Z"/></g><path class="cls-7" d="M345.52,96.63V90.28a4.06,4.06,0,0,0-.6-2l-2.48,1.43A4,4,0,0,1,343,91.7v6.38Z"/><path class="cls-2" d="M338.62,89.67a2.89,2.89,0,0,1,1.1,2.33c0,.94-.49,1.41-1.1,1.06a2.89,2.89,0,0,1-1.1-2.33C337.52,89.79,338,89.32,338.62,89.67Z"/><path class="cls-2" d="M334.65,87.37a2.91,2.91,0,0,1,1.1,2.34c0,.93-.49,1.41-1.1,1.06a2.91,2.91,0,0,1-1.1-2.34C333.55,87.5,334,87,334.65,87.37Z"/><path class="cls-2" d="M330.68,85.08a2.89,2.89,0,0,1,1.1,2.33c0,.94-.49,1.41-1.1,1.06a2.89,2.89,0,0,1-1.1-2.33C329.58,85.2,330.07,84.73,330.68,85.08Z"/><path class="cls-16" d="M342.32,186.82l.1-.06,2.06-1.19a2.07,2.07,0,0,0,1-1.51,2.83,2.83,0,0,0,0-.29V96.62L343,98.08v87.55a1.27,1.27,0,0,1-.6,1.11l-.07,0a0,0,0,0,1,0,0Z"/></g><g id="Code"><path class="cls-3" d="M249.51,54.56l27.24,15.7a1.48,1.48,0,0,1,.69,1.15c0,.41-.31.57-.69.35L249.51,56.07a1.51,1.51,0,0,1-.69-1.16C248.82,54.5,249.13,54.34,249.51,54.56Z"/><path class="cls-9" d="M259.92,84.6l10.32,5.94a1.48,1.48,0,0,1,.7,1.15c0,.42-.31.58-.7.35l-10.32-5.93a1.49,1.49,0,0,1-.69-1.15C259.23,84.54,259.54,84.38,259.92,84.6Z"/><path class="cls-9" d="M259.92,90.61l10.32,5.94a1.48,1.48,0,0,1,.7,1.15c0,.42-.31.57-.7.35l-10.32-5.93a1.51,1.51,0,0,1-.69-1.16C259.23,90.55,259.54,90.39,259.92,90.61Z"/><path class="cls-3" d="M279.43,71.81,334,103.21a1.49,1.49,0,0,1,.69,1.15c0,.42-.31.57-.69.35l-54.53-31.4a1.49,1.49,0,0,1-.69-1.15C278.74,71.74,279.05,71.59,279.43,71.81Z"/><path class="cls-3" d="M260.14,126.74l16.61,9.6a1.49,1.49,0,0,1,.69,1.15c0,.42-.31.58-.69.36l-16.61-9.61a1.49,1.49,0,0,1-.69-1.15C259.45,126.67,259.76,126.52,260.14,126.74Z"/><path class="cls-3" d="M279.43,137.89,334,169.33a1.51,1.51,0,0,1,.69,1.16c0,.41-.31.57-.69.35L279.43,139.4a1.5,1.5,0,0,1-.69-1.16C278.74,137.83,279.05,137.67,279.43,137.89Z"/><path class="cls-3" d="M249.51,60.59l13.72,7.88a1.48,1.48,0,0,1,.69,1.15c0,.41-.31.57-.69.35l-13.72-7.88a1.49,1.49,0,0,1-.69-1.15C248.82,60.52,249.13,60.36,249.51,60.59Z"/><path class="cls-17" d="M249.51,60.59l13.72,7.88a1.48,1.48,0,0,1,.69,1.15c0,.41-.31.57-.69.35l-13.72-7.88a1.49,1.49,0,0,1-.69-1.15C248.82,60.52,249.13,60.36,249.51,60.59Z"/><path class="cls-3" d="M249.51,66.58l6.42,3.7a1.5,1.5,0,0,1,.69,1.16c0,.41-.31.57-.69.35l-6.42-3.71a1.48,1.48,0,0,1-.69-1.15C248.82,66.52,249.13,66.36,249.51,66.58Z"/><path class="cls-17" d="M249.51,66.58l6.42,3.7a1.5,1.5,0,0,1,.69,1.16c0,.41-.31.57-.69.35l-6.42-3.71a1.48,1.48,0,0,1-.69-1.15C248.82,66.52,249.13,66.36,249.51,66.58Z"/><path class="cls-3" d="M249.51,78.6l6.42,3.7a1.49,1.49,0,0,1,.69,1.15c0,.42-.31.57-.69.35l-6.42-3.7a1.49,1.49,0,0,1-.69-1.15C248.82,78.53,249.13,78.38,249.51,78.6Z"/><path class="cls-17" d="M249.51,78.6l6.42,3.7a1.49,1.49,0,0,1,.69,1.15c0,.42-.31.57-.69.35l-6.42-3.7a1.49,1.49,0,0,1-.69-1.15C248.82,78.53,249.13,78.38,249.51,78.6Z"/><path class="cls-3" d="M249.51,84.61l6.42,3.7a1.48,1.48,0,0,1,.69,1.15c0,.41-.31.57-.69.35l-6.42-3.7a1.49,1.49,0,0,1-.69-1.15C248.82,84.54,249.13,84.39,249.51,84.61Z"/><path class="cls-17" d="M249.51,84.61l6.42,3.7a1.48,1.48,0,0,1,.69,1.15c0,.41-.31.57-.69.35l-6.42-3.7a1.49,1.49,0,0,1-.69-1.15C248.82,84.54,249.13,84.39,249.51,84.61Z"/><path class="cls-3" d="M265.92,70l8.22,4.76a1.5,1.5,0,0,1,.7,1.16c0,.41-.31.57-.7.35l-8.22-4.77a1.48,1.48,0,0,1-.7-1.15C265.22,70,265.53,69.8,265.92,70Z"/><path class="cls-17" d="M265.92,70l8.22,4.76a1.5,1.5,0,0,1,.7,1.16c0,.41-.31.57-.7.35l-8.22-4.77a1.48,1.48,0,0,1-.7-1.15C265.22,70,265.53,69.8,265.92,70Z"/><path class="cls-13" d="M278.64,113.45,334,145.3a1.49,1.49,0,0,1,.69,1.15c0,.42-.31.58-.69.36L278.64,115a1.51,1.51,0,0,1-.69-1.16C278,113.39,278.26,113.23,278.64,113.45Z"/><path class="cls-13" d="M325.73,134.52l8.23,4.77a1.48,1.48,0,0,1,.69,1.15c0,.41-.31.57-.69.35L325.73,136a1.48,1.48,0,0,1-.69-1.15C325,134.46,325.35,134.3,325.73,134.52Z"/><path class="cls-13" d="M267.72,101.12,323,133a1.48,1.48,0,0,1,.7,1.15c0,.42-.31.57-.7.35l-55.32-31.85a1.48,1.48,0,0,1-.69-1.15C267,101.06,267.34,100.9,267.72,101.12Z"/><path class="cls-3" d="M259.92,72.59l13.72,7.88a1.49,1.49,0,0,1,.69,1.15c0,.42-.31.58-.69.36l-13.72-7.89a1.48,1.48,0,0,1-.69-1.15C259.23,72.53,259.54,72.37,259.92,72.59Z"/><path class="cls-17" d="M259.92,72.59l13.72,7.88a1.49,1.49,0,0,1,.69,1.15c0,.42-.31.58-.69.36l-13.72-7.89a1.48,1.48,0,0,1-.69-1.15C259.23,72.53,259.54,72.37,259.92,72.59Z"/><path class="cls-3" d="M276.32,82l57.23,33.11a1.49,1.49,0,0,1,.69,1.15c0,.42-.31.57-.69.35l-57.23-33.1a1.49,1.49,0,0,1-.69-1.15C275.63,82,275.94,81.8,276.32,82Z"/><path class="cls-17" d="M276.32,82l57.23,33.11a1.49,1.49,0,0,1,.69,1.15c0,.42-.31.57-.69.35l-57.23-33.1a1.49,1.49,0,0,1-.69-1.15C275.63,82,275.94,81.8,276.32,82Z"/><path class="cls-9" d="M259.92,108.76l74,42.7a1.48,1.48,0,0,1,.69,1.15c0,.41-.31.57-.69.35l-74-42.7a1.48,1.48,0,0,1-.69-1.15C259.23,108.7,259.54,108.54,259.92,108.76Z"/><path class="cls-3" d="M249.51,102.76l6.42,3.7a1.48,1.48,0,0,1,.69,1.15c0,.41-.31.57-.69.35l-6.42-3.7a1.49,1.49,0,0,1-.69-1.15C248.82,102.69,249.13,102.53,249.51,102.76Z"/><path class="cls-17" d="M249.51,102.76l6.42,3.7a1.48,1.48,0,0,1,.69,1.15c0,.41-.31.57-.69.35l-6.42-3.7a1.49,1.49,0,0,1-.69-1.15C248.82,102.69,249.13,102.53,249.51,102.76Z"/><path class="cls-9" d="M259.92,114.77l74,42.69a1.51,1.51,0,0,1,.69,1.16c0,.41-.31.57-.69.35l-74-42.7a1.49,1.49,0,0,1-.69-1.15C259.23,114.7,259.54,114.55,259.92,114.77Z"/><path class="cls-3" d="M249.51,108.76l6.42,3.7a1.49,1.49,0,0,1,.69,1.15c0,.42-.31.58-.69.35l-6.42-3.7a1.48,1.48,0,0,1-.69-1.15C248.82,108.7,249.13,108.54,249.51,108.76Z"/><path class="cls-17" d="M249.51,108.76l6.42,3.7a1.49,1.49,0,0,1,.69,1.15c0,.42-.31.58-.69.35l-6.42-3.7a1.48,1.48,0,0,1-.69-1.15C248.82,108.7,249.13,108.54,249.51,108.76Z"/><path class="cls-9" d="M259.92,120.77l74,42.7a1.49,1.49,0,0,1,.69,1.15c0,.42-.31.57-.69.35l-74-42.69a1.51,1.51,0,0,1-.69-1.16C259.23,120.71,259.54,120.55,259.92,120.77Z"/><path class="cls-3" d="M249.51,114.77l6.42,3.7a1.49,1.49,0,0,1,.69,1.15c0,.41-.31.57-.69.35l-6.42-3.7a1.49,1.49,0,0,1-.69-1.15C248.82,114.7,249.13,114.55,249.51,114.77Z"/><path class="cls-17" d="M249.51,114.77l6.42,3.7a1.49,1.49,0,0,1,.69,1.15c0,.41-.31.57-.69.35l-6.42-3.7a1.49,1.49,0,0,1-.69-1.15C248.82,114.7,249.13,114.55,249.51,114.77Z"/><g class="cls-18"><path class="cls-13" d="M239.51,48.54l3.77,2.18A1.52,1.52,0,0,1,244,51.9v1.39c0,.44-.31.62-.69.4l-3.77-2.18a1.52,1.52,0,0,1-.69-1.19V48.94C238.82,48.5,239.13,48.32,239.51,48.54Z"/><path class="cls-13" d="M239.51,54.6l3.77,2.18A1.52,1.52,0,0,1,244,58v1.39c0,.43-.31.61-.69.39l-3.77-2.18a1.5,1.5,0,0,1-.69-1.18V55C238.82,54.56,239.13,54.39,239.51,54.6Z"/><path class="cls-13" d="M239.51,60.67l3.77,2.18A1.52,1.52,0,0,1,244,64v1.39c0,.44-.31.61-.69.4l-3.77-2.18a1.52,1.52,0,0,1-.69-1.19V61.06C238.82,60.63,239.13,60.45,239.51,60.67Z"/><path class="cls-13" d="M239.51,66.73l3.77,2.18A1.52,1.52,0,0,1,244,70.1v1.39c0,.43-.31.61-.69.39l-3.77-2.18a1.52,1.52,0,0,1-.69-1.18V67.13C238.82,66.69,239.13,66.52,239.51,66.73Z"/><path class="cls-13" d="M239.51,72.8,243.28,75a1.5,1.5,0,0,1,.69,1.18v1.39c0,.44-.31.61-.69.4l-3.77-2.18a1.52,1.52,0,0,1-.69-1.19V73.19C238.82,72.76,239.13,72.58,239.51,72.8Z"/><path class="cls-13" d="M239.51,78.86,243.28,81a1.52,1.52,0,0,1,.69,1.19v1.38c0,.44-.31.62-.69.4l-3.77-2.18a1.52,1.52,0,0,1-.69-1.18V79.26C238.82,78.82,239.13,78.64,239.51,78.86Z"/><path class="cls-13" d="M239.51,84.93l3.77,2.18a1.5,1.5,0,0,1,.69,1.18v1.39c0,.44-.31.61-.69.4l-3.77-2.18a1.52,1.52,0,0,1-.69-1.19V85.32C238.82,84.89,239.13,84.71,239.51,84.93Z"/><path class="cls-13" d="M239.51,91l3.77,2.18a1.52,1.52,0,0,1,.69,1.19v1.38c0,.44-.31.62-.69.4L239.51,94a1.52,1.52,0,0,1-.69-1.18V91.39C238.82,91,239.13,90.77,239.51,91Z"/><path class="cls-13" d="M239.51,97.06l3.77,2.18a1.5,1.5,0,0,1,.69,1.18v1.39c0,.44-.31.61-.69.39L239.51,100a1.52,1.52,0,0,1-.69-1.19V97.45C238.82,97,239.13,96.84,239.51,97.06Z"/><path class="cls-13" d="M239.51,103.12l3.77,2.18a1.52,1.52,0,0,1,.69,1.19v1.38c0,.44-.31.62-.69.4l-3.77-2.18a1.52,1.52,0,0,1-.69-1.19v-1.38C238.82,103.08,239.13,102.9,239.51,103.12Z"/><path class="cls-13" d="M239.51,109.19l3.77,2.17a1.52,1.52,0,0,1,.69,1.19v1.39c0,.44-.31.61-.69.39l-3.77-2.17a1.52,1.52,0,0,1-.69-1.19v-1.39C238.82,109.15,239.13,109,239.51,109.19Z"/><path class="cls-13" d="M239.51,115.25l3.77,2.18a1.52,1.52,0,0,1,.69,1.19V120c0,.44-.31.62-.69.4l-3.77-2.18a1.52,1.52,0,0,1-.69-1.19v-1.38C238.82,115.21,239.13,115,239.51,115.25Z"/></g><path class="cls-1" d="M214.48,28.84l20.4,11.78A3,3,0,0,1,236.25,43V66.55c0,.87-.61,1.22-1.37.79l-20.4-11.78a3.05,3.05,0,0,1-1.37-2.38V29.63C213.11,28.76,213.73,28.4,214.48,28.84Z"/><path class="cls-3" d="M216.38,52.19l1.87,1.08a1.5,1.5,0,0,1,.7,1.16c0,.41-.31.57-.7.35l-1.87-1.09a1.48,1.48,0,0,1-.7-1.15C215.68,52.12,216,52,216.38,52.19Z"/><path class="cls-17" d="M216.38,52.19l1.87,1.08a1.5,1.5,0,0,1,.7,1.16c0,.41-.31.57-.7.35l-1.87-1.09a1.48,1.48,0,0,1-.7-1.15C215.68,52.12,216,52,216.38,52.19Z"/><path class="cls-3" d="M216.38,32.9,218.25,34a1.5,1.5,0,0,1,.7,1.16c0,.41-.31.57-.7.35l-1.87-1.09a1.48,1.48,0,0,1-.7-1.15C215.68,32.83,216,32.68,216.38,32.9Z"/><path class="cls-17" d="M216.38,32.9,218.25,34a1.5,1.5,0,0,1,.7,1.16c0,.41-.31.57-.7.35l-1.87-1.09a1.48,1.48,0,0,1-.7-1.15C215.68,32.83,216,32.68,216.38,32.9Z"/><path class="cls-3" d="M219,38.27l1.87,1.09a1.46,1.46,0,0,1,.7,1.15c0,.41-.31.57-.7.35L219,39.77a1.46,1.46,0,0,1-.7-1.15C218.32,38.21,218.63,38.05,219,38.27Z"/><path class="cls-17" d="M219,38.27l1.87,1.09a1.46,1.46,0,0,1,.7,1.15c0,.41-.31.57-.7.35L219,39.77a1.46,1.46,0,0,1-.7-1.15C218.32,38.21,218.63,38.05,219,38.27Z"/><path class="cls-3" d="M219,42.12l1.87,1.09a1.46,1.46,0,0,1,.7,1.15c0,.41-.31.57-.7.35L219,43.62a1.46,1.46,0,0,1-.7-1.15C218.32,42.06,218.63,41.9,219,42.12Z"/><path class="cls-17" d="M219,42.12l1.87,1.09a1.46,1.46,0,0,1,.7,1.15c0,.41-.31.57-.7.35L219,43.62a1.46,1.46,0,0,1-.7-1.15C218.32,42.06,218.63,41.9,219,42.12Z"/><path class="cls-3" d="M216.38,44.47l1.87,1.09a1.46,1.46,0,0,1,.7,1.15c0,.41-.31.57-.7.35L216.38,46a1.46,1.46,0,0,1-.7-1.15C215.68,44.41,216,44.25,216.38,44.47Z"/><path class="cls-17" d="M216.38,44.47l1.87,1.09a1.46,1.46,0,0,1,.7,1.15c0,.41-.31.57-.7.35L216.38,46a1.46,1.46,0,0,1-.7-1.15C215.68,44.41,216,44.25,216.38,44.47Z"/><path class="cls-3" d="M219,49.85l1.87,1.08a1.48,1.48,0,0,1,.7,1.15c0,.42-.31.58-.7.35L219,51.35a1.48,1.48,0,0,1-.7-1.15C218.32,49.78,218.63,49.63,219,49.85Z"/><path class="cls-17" d="M219,49.85l1.87,1.08a1.48,1.48,0,0,1,.7,1.15c0,.42-.31.58-.7.35L219,51.35a1.48,1.48,0,0,1-.7-1.15C218.32,49.78,218.63,49.63,219,49.85Z"/><path class="cls-3" d="M221.52,35.87,233,42.49a1.49,1.49,0,0,1,.69,1.15c0,.42-.31.57-.69.35l-11.47-6.62a1.49,1.49,0,0,1-.69-1.15C220.83,35.81,221.14,35.65,221.52,35.87Z"/><path class="cls-19" d="M221.52,35.87,233,42.49a1.49,1.49,0,0,1,.69,1.15c0,.42-.31.57-.69.35l-11.47-6.62a1.49,1.49,0,0,1-.69-1.15C220.83,35.81,221.14,35.65,221.52,35.87Z"/><path class="cls-3" d="M221.52,55.16,233,61.78a1.49,1.49,0,0,1,.69,1.15c0,.42-.31.57-.69.35l-11.47-6.62a1.49,1.49,0,0,1-.69-1.15C220.83,55.09,221.14,54.94,221.52,55.16Z"/><path class="cls-19" d="M221.52,55.16,233,61.78a1.49,1.49,0,0,1,.69,1.15c0,.42-.31.57-.69.35l-11.47-6.62a1.49,1.49,0,0,1-.69-1.15C220.83,55.09,221.14,54.94,221.52,55.16Z"/><path class="cls-3" d="M224.16,41.24,233,46.35a1.49,1.49,0,0,1,.69,1.15c0,.42-.31.57-.69.35l-8.83-5.11a1.46,1.46,0,0,1-.7-1.15C223.46,41.18,223.77,41,224.16,41.24Z"/><path class="cls-19" d="M224.16,41.24,233,46.35a1.49,1.49,0,0,1,.69,1.15c0,.42-.31.57-.69.35l-8.83-5.11a1.46,1.46,0,0,1-.7-1.15C223.46,41.18,223.77,41,224.16,41.24Z"/><path class="cls-3" d="M224.16,45.1,233,50.21a1.48,1.48,0,0,1,.69,1.15c0,.41-.31.57-.69.35l-8.83-5.11a1.46,1.46,0,0,1-.7-1.15C223.46,45,223.77,44.88,224.16,45.1Z"/><path class="cls-19" d="M224.16,45.1,233,50.21a1.48,1.48,0,0,1,.69,1.15c0,.41-.31.57-.69.35l-8.83-5.11a1.46,1.46,0,0,1-.7-1.15C223.46,45,223.77,44.88,224.16,45.1Z"/><path class="cls-3" d="M221.52,47.44,233,54.06a1.51,1.51,0,0,1,.69,1.16c0,.41-.31.57-.69.35L221.52,49a1.51,1.51,0,0,1-.69-1.16C220.83,47.38,221.14,47.22,221.52,47.44Z"/><path class="cls-19" d="M221.52,47.44,233,54.06a1.51,1.51,0,0,1,.69,1.16c0,.41-.31.57-.69.35L221.52,49a1.51,1.51,0,0,1-.69-1.16C220.83,47.38,221.14,47.22,221.52,47.44Z"/><path class="cls-3" d="M224.16,52.82l8.83,5.1a1.49,1.49,0,0,1,.69,1.15c0,.42-.31.58-.69.35l-8.83-5.1a1.48,1.48,0,0,1-.7-1.15C223.46,52.75,223.77,52.6,224.16,52.82Z"/><path class="cls-19" d="M224.16,52.82l8.83,5.1a1.49,1.49,0,0,1,.69,1.15c0,.42-.31.58-.69.35l-8.83-5.1a1.48,1.48,0,0,1-.7-1.15C223.46,52.75,223.77,52.6,224.16,52.82Z"/><path class="cls-1" d="M214.48,60l20.4,11.78a3,3,0,0,1,1.37,2.37v46.55c0,.87-.61,1.22-1.37.79l-20.4-11.78a3.05,3.05,0,0,1-1.37-2.37V60.78C213.11,59.91,213.73,59.55,214.48,60Z"/><path class="cls-3" d="M216.38,64.05l1.87,1.09a1.46,1.46,0,0,1,.7,1.15c0,.41-.31.57-.7.35l-1.87-1.09a1.46,1.46,0,0,1-.7-1.15C215.68,64,216,63.83,216.38,64.05Z"/><path class="cls-17" d="M216.38,64.05l1.87,1.09a1.46,1.46,0,0,1,.7,1.15c0,.41-.31.57-.7.35l-1.87-1.09a1.46,1.46,0,0,1-.7-1.15C215.68,64,216,63.83,216.38,64.05Z"/><path class="cls-3" d="M219,69.42l1.87,1.09a1.48,1.48,0,0,1,.7,1.15c0,.42-.31.57-.7.35L219,70.93a1.5,1.5,0,0,1-.7-1.16C218.32,69.36,218.63,69.2,219,69.42Z"/><path class="cls-17" d="M219,69.42l1.87,1.09a1.48,1.48,0,0,1,.7,1.15c0,.42-.31.57-.7.35L219,70.93a1.5,1.5,0,0,1-.7-1.16C218.32,69.36,218.63,69.2,219,69.42Z"/><path class="cls-3" d="M219,73.27l1.87,1.09a1.46,1.46,0,0,1,.7,1.15c0,.41-.31.57-.7.35L219,74.77a1.46,1.46,0,0,1-.7-1.15C218.32,73.21,218.63,73.05,219,73.27Z"/><path class="cls-17" d="M219,73.27l1.87,1.09a1.46,1.46,0,0,1,.7,1.15c0,.41-.31.57-.7.35L219,74.77a1.46,1.46,0,0,1-.7-1.15C218.32,73.21,218.63,73.05,219,73.27Z"/><path class="cls-3" d="M216.38,75.62l1.87,1.09a1.46,1.46,0,0,1,.7,1.15c0,.41-.31.57-.7.35l-1.87-1.09a1.46,1.46,0,0,1-.7-1.15C215.68,75.56,216,75.4,216.38,75.62Z"/><path class="cls-17" d="M216.38,75.62l1.87,1.09a1.46,1.46,0,0,1,.7,1.15c0,.41-.31.57-.7.35l-1.87-1.09a1.46,1.46,0,0,1-.7-1.15C215.68,75.56,216,75.4,216.38,75.62Z"/><path class="cls-3" d="M221.52,67,233,73.64a1.49,1.49,0,0,1,.69,1.15c0,.42-.31.58-.69.35l-11.47-6.62a1.48,1.48,0,0,1-.69-1.15C220.83,67,221.14,66.8,221.52,67Z"/><path class="cls-19" d="M221.52,67,233,73.64a1.49,1.49,0,0,1,.69,1.15c0,.42-.31.58-.69.35l-11.47-6.62a1.48,1.48,0,0,1-.69-1.15C220.83,67,221.14,66.8,221.52,67Z"/><path class="cls-3" d="M224.16,72.39,233,77.5a1.49,1.49,0,0,1,.69,1.15c0,.42-.31.57-.69.35l-8.83-5.1a1.5,1.5,0,0,1-.7-1.16C223.46,72.33,223.77,72.17,224.16,72.39Z"/><path class="cls-19" d="M224.16,72.39,233,77.5a1.49,1.49,0,0,1,.69,1.15c0,.42-.31.57-.69.35l-8.83-5.1a1.5,1.5,0,0,1-.7-1.16C223.46,72.33,223.77,72.17,224.16,72.39Z"/><path class="cls-3" d="M224.16,76.25,233,81.36a1.48,1.48,0,0,1,.69,1.15c0,.41-.31.57-.69.35l-8.83-5.11a1.46,1.46,0,0,1-.7-1.15C223.46,76.19,223.77,76,224.16,76.25Z"/><path class="cls-19" d="M224.16,76.25,233,81.36a1.48,1.48,0,0,1,.69,1.15c0,.41-.31.57-.69.35l-8.83-5.11a1.46,1.46,0,0,1-.7-1.15C223.46,76.19,223.77,76,224.16,76.25Z"/><path class="cls-3" d="M221.52,78.59,233,85.22a1.48,1.48,0,0,1,.69,1.15c0,.41-.31.57-.69.35L221.52,80.1a1.49,1.49,0,0,1-.69-1.15C220.83,78.53,221.14,78.37,221.52,78.59Z"/><path class="cls-19" d="M221.52,78.59,233,85.22a1.48,1.48,0,0,1,.69,1.15c0,.41-.31.57-.69.35L221.52,80.1a1.49,1.49,0,0,1-.69-1.15C220.83,78.53,221.14,78.37,221.52,78.59Z"/><path class="cls-3" d="M219,81l1.87,1.09a1.46,1.46,0,0,1,.7,1.15c0,.41-.31.57-.7.35L219,82.52a1.46,1.46,0,0,1-.7-1.15C218.32,81,218.63,80.8,219,81Z"/><path class="cls-17" d="M219,81l1.87,1.09a1.46,1.46,0,0,1,.7,1.15c0,.41-.31.57-.7.35L219,82.52a1.46,1.46,0,0,1-.7-1.15C218.32,81,218.63,80.8,219,81Z"/><path class="cls-3" d="M219,84.87,220.89,86a1.5,1.5,0,0,1,.7,1.16c0,.41-.31.57-.7.35L219,86.37a1.48,1.48,0,0,1-.7-1.15C218.32,84.8,218.63,84.65,219,84.87Z"/><path class="cls-17" d="M219,84.87,220.89,86a1.5,1.5,0,0,1,.7,1.16c0,.41-.31.57-.7.35L219,86.37a1.48,1.48,0,0,1-.7-1.15C218.32,84.8,218.63,84.65,219,84.87Z"/><path class="cls-3" d="M224.16,84,233,89.1a1.48,1.48,0,0,1,.69,1.15c0,.41-.31.57-.69.35l-8.83-5.11a1.46,1.46,0,0,1-.7-1.15C223.46,83.93,223.77,83.77,224.16,84Z"/><path class="cls-19" d="M224.16,84,233,89.1a1.48,1.48,0,0,1,.69,1.15c0,.41-.31.57-.69.35l-8.83-5.11a1.46,1.46,0,0,1-.7-1.15C223.46,83.93,223.77,83.77,224.16,84Z"/><path class="cls-3" d="M224.16,87.85,233,93a1.48,1.48,0,0,1,.69,1.15c0,.41-.31.57-.69.35l-8.83-5.11a1.48,1.48,0,0,1-.7-1.15C223.46,87.78,223.77,87.63,224.16,87.85Z"/><path class="cls-19" d="M224.16,87.85,233,93a1.48,1.48,0,0,1,.69,1.15c0,.41-.31.57-.69.35l-8.83-5.11a1.48,1.48,0,0,1-.7-1.15C223.46,87.78,223.77,87.63,224.16,87.85Z"/><path class="cls-3" d="M216.38,95,218.25,96a1.48,1.48,0,0,1,.7,1.15c0,.42-.31.58-.7.35l-1.87-1.08a1.48,1.48,0,0,1-.7-1.15C215.68,94.89,216,94.74,216.38,95Z"/><path class="cls-17" d="M216.38,95,218.25,96a1.48,1.48,0,0,1,.7,1.15c0,.42-.31.58-.7.35l-1.87-1.08a1.48,1.48,0,0,1-.7-1.15C215.68,94.89,216,94.74,216.38,95Z"/><path class="cls-3" d="M221.52,97.93,233,104.55a1.49,1.49,0,0,1,.69,1.15c0,.42-.31.58-.69.35l-11.47-6.62a1.48,1.48,0,0,1-.69-1.15C220.83,97.87,221.14,97.71,221.52,97.93Z"/><path class="cls-19" d="M221.52,97.93,233,104.55a1.49,1.49,0,0,1,.69,1.15c0,.42-.31.58-.69.35l-11.47-6.62a1.48,1.48,0,0,1-.69-1.15C220.83,97.87,221.14,97.71,221.52,97.93Z"/><path class="cls-3" d="M219,100.36l1.87,1.08a1.48,1.48,0,0,1,.7,1.15c0,.42-.31.58-.7.35L219,101.86a1.48,1.48,0,0,1-.7-1.15C218.32,100.29,218.63,100.13,219,100.36Z"/><path class="cls-17" d="M219,100.36l1.87,1.08a1.48,1.48,0,0,1,.7,1.15c0,.42-.31.58-.7.35L219,101.86a1.48,1.48,0,0,1-.7-1.15C218.32,100.29,218.63,100.13,219,100.36Z"/><path class="cls-3" d="M219,104.2l1.87,1.09a1.48,1.48,0,0,1,.7,1.15c0,.42-.31.57-.7.35L219,105.71a1.48,1.48,0,0,1-.7-1.16C218.32,104.14,218.63,104,219,104.2Z"/><path class="cls-17" d="M219,104.2l1.87,1.09a1.48,1.48,0,0,1,.7,1.15c0,.42-.31.57-.7.35L219,105.71a1.48,1.48,0,0,1-.7-1.16C218.32,104.14,218.63,104,219,104.2Z"/><path class="cls-3" d="M224.16,103.33l8.83,5.1a1.49,1.49,0,0,1,.69,1.15c0,.42-.31.58-.69.36l-8.83-5.11a1.48,1.48,0,0,1-.7-1.15C223.46,103.26,223.77,103.1,224.16,103.33Z"/><path class="cls-19" d="M224.16,103.33l8.83,5.1a1.49,1.49,0,0,1,.69,1.15c0,.42-.31.58-.69.36l-8.83-5.11a1.48,1.48,0,0,1-.7-1.15C223.46,103.26,223.77,103.1,224.16,103.33Z"/><path class="cls-3" d="M224.16,107.18l8.83,5.11a1.49,1.49,0,0,1,.69,1.15c0,.42-.31.57-.69.35l-8.83-5.1a1.5,1.5,0,0,1-.7-1.16C223.46,107.12,223.77,107,224.16,107.18Z"/><path class="cls-19" d="M224.16,107.18l8.83,5.11a1.49,1.49,0,0,1,.69,1.15c0,.42-.31.57-.69.35l-8.83-5.1a1.5,1.5,0,0,1-.7-1.16C223.46,107.12,223.77,107,224.16,107.18Z"/><path class="cls-3" d="M219,88.7l1.87,1.08a1.48,1.48,0,0,1,.7,1.15c0,.42-.31.57-.7.35L219,90.2a1.48,1.48,0,0,1-.7-1.15C218.32,88.63,218.63,88.47,219,88.7Z"/><path class="cls-17" d="M219,88.7l1.87,1.08a1.48,1.48,0,0,1,.7,1.15c0,.42-.31.57-.7.35L219,90.2a1.48,1.48,0,0,1-.7-1.15C218.32,88.63,218.63,88.47,219,88.7Z"/><path class="cls-3" d="M216.38,91.05l1.87,1.08a1.48,1.48,0,0,1,.7,1.15c0,.42-.31.57-.7.35l-1.87-1.08a1.48,1.48,0,0,1-.7-1.15C215.68,91,216,90.82,216.38,91.05Z"/><path class="cls-17" d="M216.38,91.05l1.87,1.08a1.48,1.48,0,0,1,.7,1.15c0,.42-.31.57-.7.35l-1.87-1.08a1.48,1.48,0,0,1-.7-1.15C215.68,91,216,90.82,216.38,91.05Z"/><path class="cls-3" d="M224.16,91.68l8.83,5.1a1.49,1.49,0,0,1,.69,1.15c0,.42-.31.58-.69.35l-8.83-5.1a1.48,1.48,0,0,1-.7-1.15C223.46,91.61,223.77,91.45,224.16,91.68Z"/><path class="cls-19" d="M224.16,91.68l8.83,5.1a1.49,1.49,0,0,1,.69,1.15c0,.42-.31.58-.69.35l-8.83-5.1a1.48,1.48,0,0,1-.7-1.15C223.46,91.61,223.77,91.45,224.16,91.68Z"/><path class="cls-3" d="M221.52,94,233,100.64a1.49,1.49,0,0,1,.69,1.15c0,.42-.31.57-.69.35l-11.47-6.62a1.49,1.49,0,0,1-.69-1.15C220.83,94,221.14,93.8,221.52,94Z"/><path class="cls-19" d="M221.52,94,233,100.64a1.49,1.49,0,0,1,.69,1.15c0,.42-.31.57-.69.35l-11.47-6.62a1.49,1.49,0,0,1-.69-1.15C220.83,94,221.14,93.8,221.52,94Z"/><path class="cls-3" d="M216.38,106.61l1.87,1.08a1.48,1.48,0,0,1,.7,1.15c0,.42-.31.58-.7.36l-1.87-1.09a1.48,1.48,0,0,1-.7-1.15C215.68,106.54,216,106.39,216.38,106.61Z"/><path class="cls-17" d="M216.38,106.61l1.87,1.08a1.48,1.48,0,0,1,.7,1.15c0,.42-.31.58-.7.36l-1.87-1.09a1.48,1.48,0,0,1-.7-1.15C215.68,106.54,216,106.39,216.38,106.61Z"/><path class="cls-3" d="M221.52,109.58,233,116.2a1.49,1.49,0,0,1,.69,1.15c0,.42-.31.58-.69.35l-11.47-6.62a1.48,1.48,0,0,1-.69-1.15C220.83,109.52,221.14,109.36,221.52,109.58Z"/><path class="cls-19" d="M221.52,109.58,233,116.2a1.49,1.49,0,0,1,.69,1.15c0,.42-.31.58-.69.35l-11.47-6.62a1.48,1.48,0,0,1-.69-1.15C220.83,109.52,221.14,109.36,221.52,109.58Z"/></g></g><g id="Window-3" data-name="Window"><g class="cls-20"><path class="cls-2" d="M328,125.42V201.8a3.53,3.53,0,0,0,1.58,2.75l43.88,25.31a.94.94,0,0,0,.53.15l.2,0,.14-.05.08-.05.09-.06a.24.24,0,0,0,.09-.08,1.09,1.09,0,0,0,.29-.41,1.92,1.92,0,0,0,.17-.81v-76a3.51,3.51,0,0,0-1.59-2.75L329.57,124.5a1.13,1.13,0,0,0-1.06-.13.39.39,0,0,0-.14.08h0a.47.47,0,0,0-.1.1l-.05.06a.22.22,0,0,0,0,.08,1.24,1.24,0,0,0-.1.2.7.7,0,0,0,0,.14.06.06,0,0,0,0,0,.59.59,0,0,0,0,.14A1.27,1.27,0,0,0,328,125.42Z"/></g><path class="cls-3" d="M328.51,124.37a1.13,1.13,0,0,1,1.06.13l43.88,25.29a3.51,3.51,0,0,1,1.59,2.75v5.19l2.53-1.46v-5.15a3.53,3.53,0,0,0-1.58-2.75L332.1,123.08A1.11,1.11,0,0,0,331,123C330.67,123.16,328.85,124.19,328.51,124.37Z"/><path class="cls-3" d="M328,125.41c0-1,.71-1.41,1.58-.9l43.88,25.29a3.48,3.48,0,0,1,1.59,2.74v5.19L328,130.61Z"/><g class="cls-15"><path class="cls-13" d="M329.58,124.5l43.87,25.29a3.35,3.35,0,0,1,1.12,1.18l2.52-1.44a3.26,3.26,0,0,0-1.11-1.16L332.1,123.08A1.11,1.11,0,0,0,331,123c-.28.17-2.1,1.2-2.44,1.37A1.19,1.19,0,0,1,329.58,124.5Z"/></g><path class="cls-7" d="M377.57,156.27v-5.15a3.29,3.29,0,0,0-.48-1.59L374.56,151a3.15,3.15,0,0,1,.48,1.57v5.19Z"/><path class="cls-2" d="M372.73,151.93a2.34,2.34,0,0,1,.9,1.9c0,.76-.4,1.14-.9.86a2.39,2.39,0,0,1-.89-1.9C371.84,152,372.24,151.64,372.73,151.93Z"/><path class="cls-2" d="M369.51,150.06a2.39,2.39,0,0,1,.89,1.9c0,.76-.4,1.15-.89.86a2.34,2.34,0,0,1-.9-1.9C368.61,150.16,369,149.78,369.51,150.06Z"/><path class="cls-2" d="M366.28,148.2a2.33,2.33,0,0,1,.9,1.89c0,.77-.4,1.15-.9.87a2.4,2.4,0,0,1-.9-1.9C365.38,148.3,365.79,147.91,366.28,148.2Z"/><g class="cls-21"><path class="cls-1" d="M374.46,229.87l.2-.12c.14-.09.31-.18.48-.27h0l.27-.15h0l.41-.24.86-.47.19-.11a.82.82,0,0,0,.27-.22,1.21,1.21,0,0,0,.22-.32,2,2,0,0,0,.18-.84V156.27L375,157.73v70.8a2.37,2.37,0,0,1-.17.81,1.09,1.09,0,0,1-.29.41.24.24,0,0,1-.09.08Z"/></g><path class="cls-3" d="M331.63,139.38a.26.26,0,0,1,.08-.21l1.14-1a.07.07,0,0,1,.06,0h0a.2.2,0,0,1,.09.11.34.34,0,0,1,0,.16v.8a.91.91,0,0,1,0,.21.35.35,0,0,1-.08.13l-.6.55.6,1.24a2.11,2.11,0,0,1,.08.22,1.47,1.47,0,0,1,0,.25v.79a.16.16,0,0,1,0,.12s0,0-.09,0l0,0a.14.14,0,0,1-.06-.07l-1.14-2.36a.67.67,0,0,1-.08-.3Z"/><path class="cls-3" d="M335.8,138.28a.34.34,0,0,1,.09-.14.15.15,0,0,1,.17,0l.43.25a.35.35,0,0,1,.09.11.5.5,0,0,1,0,.16.22.22,0,0,1,0,.08l-2,6.07a.41.41,0,0,1-.08.13s-.1,0-.18,0l-.41-.23a.35.35,0,0,1-.09-.11.53.53,0,0,1,0-.16.24.24,0,0,1,0-.08Z"/><path class="cls-3" d="M338.83,144.12a.25.25,0,0,1-.08.2l-1.14,1.05h-.05l0,0a.17.17,0,0,1-.09-.11.29.29,0,0,1,0-.16v-.79a1.09,1.09,0,0,1,0-.22.83.83,0,0,1,.08-.12l.61-.55-.61-1.25c0-.08-.06-.15-.08-.22a1.44,1.44,0,0,1,0-.24v-.79a.15.15,0,0,1,0-.12s.05,0,.09,0l0,0a.25.25,0,0,1,.05.07l1.14,2.36a.67.67,0,0,1,.08.29Z"/><path class="cls-3" d="M342,147.23a.33.33,0,0,1,.11.14.45.45,0,0,1,.05.19v.88a.2.2,0,0,1-.05.14.09.09,0,0,1-.11,0l-.54-.31a.33.33,0,0,1-.11-.14.43.43,0,0,1,0-.19v-.88a.2.2,0,0,1,0-.14.09.09,0,0,1,.11,0Z"/><path class="cls-3" d="M343.8,148.27a.33.33,0,0,1,.11.14.45.45,0,0,1,0,.19v.88a.2.2,0,0,1,0,.14.09.09,0,0,1-.11,0l-.54-.32a.25.25,0,0,1-.11-.13.48.48,0,0,1,0-.2v-.87a.2.2,0,0,1,0-.14.09.09,0,0,1,.11,0Z"/><path class="cls-3" d="M345.6,149.31a.27.27,0,0,1,.11.14.45.45,0,0,1,.05.19v.87a.21.21,0,0,1-.05.15.08.08,0,0,1-.11,0l-.54-.31a.29.29,0,0,1-.11-.13.49.49,0,0,1-.05-.2v-.87A.2.2,0,0,1,345,149a.09.09,0,0,1,.11,0Z"/><path class="cls-3" d="M332.11,146.3l26.37,15.22a1.21,1.21,0,0,1,.56.93c0,.34-.25.47-.56.29l-26.37-15.22a1.21,1.21,0,0,1-.56-.94C331.55,146.24,331.8,146.12,332.11,146.3Z"/><path class="cls-9" d="M340.57,165.83l26.37,15.22a1.21,1.21,0,0,1,.56.94c0,.34-.25.46-.56.28l-26.37-15.22a1.21,1.21,0,0,1-.56-.93C340,165.78,340.26,165.65,340.57,165.83Z"/><path class="cls-9" d="M340.57,175.6l12.62,7.29a1.21,1.21,0,0,1,.56.93c0,.34-.25.47-.56.29l-12.62-7.29a1.21,1.21,0,0,1-.56-.94C340,175.55,340.26,175.42,340.57,175.6Z"/><path class="cls-3" d="M360.66,162.78l10.51,6a1.21,1.21,0,0,1,.56.94c0,.33-.25.46-.56.28l-10.51-6a1.21,1.21,0,0,1-.56-.94C360.1,162.73,360.35,162.6,360.66,162.78Z"/><path class="cls-3" d="M332.11,200l26.37,15.22a1.21,1.21,0,0,1,.56.94c0,.34-.25.46-.56.28l-26.37-15.22a1.21,1.21,0,0,1-.56-.93C331.55,200,331.8,199.83,332.11,200Z"/><path class="cls-3" d="M360.66,216.49l10.51,6a1.19,1.19,0,0,1,.56.93c0,.34-.25.47-.56.29l-10.51-6a1.21,1.21,0,0,1-.56-.94C360.1,216.44,360.35,216.31,360.66,216.49Z"/><path class="cls-3" d="M360.66,201.87l10.51,6a1.21,1.21,0,0,1,.56.94c0,.33-.25.46-.56.28l-10.51-6a1.21,1.21,0,0,1-.56-.94C360.1,201.82,360.35,201.69,360.66,201.87Z"/><path class="cls-3" d="M360.66,206.75l10.51,6a1.21,1.21,0,0,1,.56.94c0,.34-.25.46-.56.28l-10.51-6a1.21,1.21,0,0,1-.56-.93C360.1,206.7,360.35,206.57,360.66,206.75Z"/><path class="cls-3" d="M351.71,196.68l5.9,3.41a1.21,1.21,0,0,1,.56.94c0,.33-.25.46-.56.28l-5.9-3.41a1.16,1.16,0,0,1-.57-.93C351.14,196.63,351.39,196.5,351.71,196.68Z"/><path class="cls-3" d="M332.11,151.19l15.38,8.87a1.21,1.21,0,0,1,.56.94c0,.34-.25.46-.56.28l-15.38-8.87a1.21,1.21,0,0,1-.56-.93C331.55,151.14,331.8,151,332.11,151.19Z"/><path class="cls-17" d="M332.11,151.19l15.38,8.87a1.21,1.21,0,0,1,.56.94c0,.34-.25.46-.56.28l-15.38-8.87a1.21,1.21,0,0,1-.56-.93C331.55,151.14,331.8,151,332.11,151.19Z"/><path class="cls-3" d="M332.11,156.07l5.22,3a1.21,1.21,0,0,1,.56.94c0,.34-.25.46-.56.28l-5.22-3a1.21,1.21,0,0,1-.56-.94C331.55,156,331.8,155.89,332.11,156.07Z"/><path class="cls-17" d="M332.11,156.07l5.22,3a1.21,1.21,0,0,1,.56.94c0,.34-.25.46-.56.28l-5.22-3a1.21,1.21,0,0,1-.56-.94C331.55,156,331.8,155.89,332.11,156.07Z"/><path class="cls-3" d="M332.11,161l5.22,3a1.21,1.21,0,0,1,.56.93c0,.34-.25.47-.56.29l-5.22-3a1.21,1.21,0,0,1-.56-.94C331.55,160.9,331.8,160.77,332.11,161Z"/><path class="cls-17" d="M332.11,161l5.22,3a1.21,1.21,0,0,1,.56.93c0,.34-.25.47-.56.29l-5.22-3a1.21,1.21,0,0,1-.56-.94C331.55,160.9,331.8,160.77,332.11,161Z"/><path class="cls-3" d="M332.11,165.83l5.22,3a1.21,1.21,0,0,1,.56.94c0,.33-.25.46-.56.28l-5.22-3a1.21,1.21,0,0,1-.56-.93C331.55,165.78,331.8,165.65,332.11,165.83Z"/><path class="cls-17" d="M332.11,165.83l5.22,3a1.21,1.21,0,0,1,.56.94c0,.33-.25.46-.56.28l-5.22-3a1.21,1.21,0,0,1-.56-.93C331.55,165.78,331.8,165.65,332.11,165.83Z"/><path class="cls-22" d="M340.57,170.71,356,179.59a1.21,1.21,0,0,1,.56.93c0,.34-.25.47-.56.29l-15.38-8.87A1.21,1.21,0,0,1,340,171C340,170.66,340.26,170.53,340.57,170.71Z"/><path class="cls-22" d="M358.13,180.85l6.69,3.87a1.21,1.21,0,0,1,.56.94c0,.33-.25.46-.56.28l-6.69-3.87a1.21,1.21,0,0,1-.56-.94C357.57,180.8,357.82,180.67,358.13,180.85Z"/><path class="cls-17" d="M340.57,170.71,356,179.59a1.21,1.21,0,0,1,.56.93c0,.34-.25.47-.56.29l-15.38-8.87A1.21,1.21,0,0,1,340,171C340,170.66,340.26,170.53,340.57,170.71Z"/><path class="cls-17" d="M358.13,180.85l6.69,3.87a1.21,1.21,0,0,1,.56.94c0,.33-.25.46-.56.28l-6.69-3.87a1.21,1.21,0,0,1-.56-.94C357.57,180.8,357.82,180.67,358.13,180.85Z"/><path class="cls-3" d="M332.11,170.72l5.22,3a1.21,1.21,0,0,1,.56.94c0,.34-.25.46-.56.29l-5.22-3a1.21,1.21,0,0,1-.56-.94C331.55,170.66,331.8,170.54,332.11,170.72Z"/><path class="cls-17" d="M332.11,170.72l5.22,3a1.21,1.21,0,0,1,.56.94c0,.34-.25.46-.56.29l-5.22-3a1.21,1.21,0,0,1-.56-.94C331.55,170.66,331.8,170.54,332.11,170.72Z"/><path class="cls-3" d="M349.68,161.32l6.68,3.88a1.22,1.22,0,0,1,.57.93c0,.34-.26.47-.57.29l-6.68-3.88a1.18,1.18,0,0,1-.57-.93C349.11,161.27,349.36,161.14,349.68,161.32Z"/><path class="cls-17" d="M349.68,161.32l6.68,3.88a1.22,1.22,0,0,1,.57.93c0,.34-.26.47-.57.29l-6.68-3.88a1.18,1.18,0,0,1-.57-.93C349.11,161.27,349.36,161.14,349.68,161.32Z"/><path class="cls-13" d="M346.92,184.14,362.29,193a1.2,1.2,0,0,1,.57.94c0,.33-.25.46-.57.28l-15.37-8.87a1.2,1.2,0,0,1-.57-.94C346.35,184.09,346.6,184,346.92,184.14Z"/><path class="cls-13" d="M355.79,194.16,371.17,203a1.21,1.21,0,0,1,.56.94c0,.34-.25.47-.56.29l-15.38-8.88a1.2,1.2,0,0,1-.57-.93C355.22,194.11,355.48,194,355.79,194.16Z"/><path class="cls-13" d="M364.48,194.27l6.69,3.87a1.21,1.21,0,0,1,.56.94c0,.34-.25.46-.56.28l-6.69-3.87a1.22,1.22,0,0,1-.57-.93C363.91,194.22,364.17,194.09,364.48,194.27Z"/><path class="cls-9" d="M364.48,213.61l6.69,3.88a1.19,1.19,0,0,1,.56.93c0,.34-.25.47-.56.29l-6.69-3.88a1.22,1.22,0,0,1-.57-.93C363.91,213.56,364.17,213.43,364.48,213.61Z"/><path class="cls-3" d="M340.57,161,356,169.82a1.21,1.21,0,0,1,.56.94c0,.33-.25.46-.56.28l-15.38-8.87a1.21,1.21,0,0,1-.56-.94C340,160.9,340.26,160.77,340.57,161Z"/><path class="cls-17" d="M340.57,161,356,169.82a1.21,1.21,0,0,1,.56.94c0,.33-.25.46-.56.28l-15.38-8.87a1.21,1.21,0,0,1-.56-.94C340,160.9,340.26,160.77,340.57,161Z"/><path class="cls-3" d="M358.13,171.08l6.69,3.87a1.21,1.21,0,0,1,.56.94c0,.34-.25.47-.56.29l-6.69-3.88a1.21,1.21,0,0,1-.56-.93C357.57,171,357.82,170.9,358.13,171.08Z"/><path class="cls-17" d="M358.13,171.08l6.69,3.87a1.21,1.21,0,0,1,.56.94c0,.34-.25.47-.56.29l-6.69-3.88a1.21,1.21,0,0,1-.56-.93C357.57,171,357.82,170.9,358.13,171.08Z"/></g><g id="Mouse"><path class="cls-7" d="M253.32,227l9.42,5.44a10.36,10.36,0,0,0,10.4-.55l15.55-11.35c2.77-2,2.61-5-.35-6.77l-4.73-2.73a12.83,12.83,0,0,0-10.93-.33l-19.19,10.4C250.42,222.68,250.35,225.32,253.32,227Z"/><path class="cls-1" d="M289,215.64l-10.76,8.41-7.94,6.21a7.29,7.29,0,0,1-6.29-.19l-8.44-4.87h0l0,0a6,6,0,0,1-1.7-8.53c.08-.12.16-.23.25-.34a11.15,11.15,0,0,1,6.78-4.3l4.27-.86c6.92-1.4,12.6-2.09,13.25-1.64l10.57,6.13Z"/><path class="cls-3" d="M282.93,220.34l.61-.47-9.49-5.48,8.3-2.57-.84-.48-8.3,2.57-5.65-3.27-1.08.21Z"/><path class="cls-8" d="M271.18,229.75a.1.1,0,0,0,.05,0s0,0,0,0l7.55-5.45,10.2-7.37v-1.15a.11.11,0,0,0-.05-.09l-.07,0c-.75-.27-5.18,1.06-10.52,3.19l-3.54,1.4a11,11,0,0,0-3,1.79,11.25,11.25,0,0,0-4.09,8.68v.19a7,7,0,0,0,2.53-.61Z"/></g></g><g id="Character"><path class="cls-23" d="M130.69,324.15c0-.2-3.21-11.79-3.21-11.79s1,1.06,7.75-.7a38,38,0,0,0,7.29-3.06l1.92,8.47c1.78,3.26,7.7,1.76,14.18,1,1.09-.12,2.21-.3,3.34-.5H162c3.5-.2,7,1.91,3.38,4.89s-9.65,4.12-15.18,5.12C143.56,328.8,131.89,330.76,130.69,324.15Z"/><path class="cls-8" d="M177.24,323.12a6.9,6.9,0,0,1,.49,3.57c-.13,1.29-3.32,5.67-9,8.35s-12.62,2.86-15.89,3.8-6.26,2.82-10.11,3.76-7.66,1.43-11.51-1.11c-.71-1.1-1.5-3.63-1.27-3.87C130.6,337,177.24,323.12,177.24,323.12Z"/><path class="cls-3" d="M145.45,318.2c2.49,1.72,7.62.53,13.17-.11,5.24-.59,11.13-2.43,14.69-1.2s6.53,5.42,1.72,10.79c-1.39,1.56-4.33,4.29-6.68,5.13-6,2.14-11.34,2.31-15.19,3.26-5,1.24-7.73,3.45-12.36,4-6,.69-9.78-.84-10.81-2.44s-2-14.49.57-14.23c0,0,1.08,4.17,10.86.12C145.69,321.74,145.62,319.14,145.45,318.2Z"/><path class="cls-6" d="M145.45,318.2c2.49,1.72,7.62.53,13.17-.11,5.24-.59,11.13-2.43,14.69-1.2s6.53,5.42,1.72,10.79c-1.39,1.56-4.33,4.29-6.68,5.13-6,2.14-11.34,2.31-15.19,3.26-5,1.24-7.73,3.45-12.36,4-6,.69-9.78-.84-10.81-2.44s-2-14.49.57-14.23c0,0,1.08,4.17,10.86.12C145.69,321.74,145.62,319.14,145.45,318.2Z"/><path class="cls-24" d="M162.05,325.12s-.56-5.45-4.58-6.89a2.13,2.13,0,0,0-2.22.29s3.74.55,5,6.93c0,0,.19.42,1,.28C161.49,325.68,162.09,325.57,162.05,325.12Z"/><path class="cls-24" d="M151.82,319s0-.18,1-.36a1.66,1.66,0,0,1,1.1.12s3,1.3,3.56,7c0,0,0,.69-.92.88a.84.84,0,0,1-1.08-.56S154.82,320,151.82,319Z"/><path class="cls-24" d="M148.6,319.07s.17-.35.88-.34c.89,0,1.09.35,1.09.35s2.14,2.19,2.16,6.94c0,0,.09.81-1,.89s-1-.83-1-.83S150.35,320,148.6,319.07Z"/><path class="cls-1" d="M126.55,245.32c4.9,14.73,17.9,65.46,17.9,65.46s-8.46,7.6-17.64,4.14L105,251.75Z"/><path class="cls-23" d="M164.34,340.53c-1-1.49-4.76-11.81-4.76-11.81s3.93,2.25,10.67.64c3.43-.81,6.64-4.54,6.64-4.54l2.88,9.92c1.7,3.3,7.21,2.21,13.71,1.63,1.09-.1,2.22-.25,3.34-.42h.07c3.5-.11,7,2.08,3.25,5s-9.74,3.87-15.3,4.74C178.16,346.71,168.09,346.09,164.34,340.53Z"/><path class="cls-8" d="M214.76,340.22a7.28,7.28,0,0,1,.43,3.83c-.17,1.39-3.71,6-9.84,8.74s-13.63,2.74-17.16,3.66-6.79,2.86-10.95,3.76-8.25,1.34-12.33-1.49c-.73-1.2-1.51-3.93-1.26-4.19C164.33,353.83,214.76,340.22,214.76,340.22Z"/><path class="cls-3" d="M180.83,334a13.15,13.15,0,0,0,1.23.76,3.67,3.67,0,0,0,1.36.28,20,20,0,0,0,3.28.08c2.74-.14,5.47-.55,8.21-.8,5.63-.5,12-2.32,15.8-.9s7.24,6,1.94,11.61c-1.54,1.63-4.7,4.39-7.11,5.4-6.29,2.63-12.82,2.13-17,3.05-5.4,1.2-8.4,3.5-13.38,4-6.45.58-10.47-1.17-11.54-2.91-.6-1,.07-6-.74-10-.7-3.38-.52-5.68.7-5.52a5.93,5.93,0,0,0,.94,1.19,4.37,4.37,0,0,0,1.43,1.13,11.32,11.32,0,0,0,2.42.82,14,14,0,0,0,4.49.61,2.17,2.17,0,0,0,1.22-.38,2.6,2.6,0,0,0,.71-1.53c.11-.5.21-1,.32-1.49a2,2,0,0,1,.27-.78,2.16,2.16,0,0,1,.76-.61,6.45,6.45,0,0,0,2.46-1.87,5.78,5.78,0,0,0,.72-2.31.57.57,0,0,1,.16-.38c.19-.15.45,0,.65.1Z"/><path class="cls-6" d="M180.83,334a13.15,13.15,0,0,0,1.23.76,3.67,3.67,0,0,0,1.36.28,20,20,0,0,0,3.28.08c2.74-.14,5.47-.55,8.21-.8,5.63-.5,12-2.32,15.8-.9s7.24,6,1.94,11.61c-1.54,1.63-4.7,4.39-7.11,5.4-6.29,2.63-12.82,2.13-17,3.05-5.4,1.2-8.4,3.5-13.38,4-6.45.58-10.47-1.17-11.54-2.91-.6-1,.07-6-.74-10-.7-3.38-.52-5.68.7-5.52a5.93,5.93,0,0,0,.94,1.19,4.37,4.37,0,0,0,1.43,1.13,11.32,11.32,0,0,0,2.42.82,14,14,0,0,0,4.49.61,2.17,2.17,0,0,0,1.22-.38,2.6,2.6,0,0,0,.71-1.53c.11-.5.21-1,.32-1.49a2,2,0,0,1,.27-.78,2.16,2.16,0,0,1,.76-.61,6.45,6.45,0,0,0,2.46-1.87,5.78,5.78,0,0,0,.72-2.31.57.57,0,0,1,.16-.38c.19-.15.45,0,.65.1Z"/><path class="cls-24" d="M198.4,342s-.46-5.86-4.74-7.52a2.26,2.26,0,0,0-2.38.26s4,.68,5.14,7.57c0,0,.19.45,1.07.32C197.78,342.54,198.43,342.44,198.4,342Z"/><path class="cls-24" d="M187.58,335.06s0-.19,1-.36a1.81,1.81,0,0,1,1.18.16s3.18,1.48,3.64,7.6a1.1,1.1,0,0,1-1,.92.89.89,0,0,1-1.14-.63S190.77,336.31,187.58,335.06Z"/><path class="cls-24" d="M184.12,335.1s.19-.36.95-.34c1,0,1.17.41,1.17.41s2.23,2.4,2.13,7.51c0,0,.08.87-1.13.93s-1-.92-1-.92S186,336.18,184.12,335.1Z"/><path class="cls-2" d="M161,262.71c3.86,11.88,13.72,45.67,18.22,63.05,0,0-8.09,7.27-18.5,6.64l-25.09-65.07,10-6.18Z"/><path class="cls-2" d="M78.43,425.15a1.63,1.63,0,0,0,1.63-1.63V318.93a1.63,1.63,0,0,0-3.26,0V423.52A1.63,1.63,0,0,0,78.43,425.15Z"/><path class="cls-2" d="M13.72,387.08a1.62,1.62,0,0,0,1.51-1l32.08-81.17a1.63,1.63,0,0,0-3-1.2L12.21,384.86a1.63,1.63,0,0,0,.91,2.11A1.59,1.59,0,0,0,13.72,387.08Z"/><path class="cls-2" d="M17.57,377.33a1.62,1.62,0,0,0,1.19-.51l59.67-63.15L138,376.56a1.63,1.63,0,0,0,2.36-2.24L79.61,310.19a1.59,1.59,0,0,0-1.18-.51h0a1.6,1.6,0,0,0-1.18.51l-60.86,64.4a1.62,1.62,0,0,0,1.18,2.74Z"/><path class="cls-2" d="M143.14,387.08a1.59,1.59,0,0,0,.6-.11,1.63,1.63,0,0,0,.91-2.11l-32.07-81.18a1.62,1.62,0,0,0-3,1.2l32.07,81.17A1.62,1.62,0,0,0,143.14,387.08Z"/><path class="cls-3" d="M143.93,283.07c1.16-6.56-4.18-11.68-14.24-18.47a237.1,237.1,0,0,0-29.13-16.37c-8.41-3.86-17-3.51-27.79,2-15,7.69-60,35-60,35s67.32,38,80.27,36.3,45.33-22.75,47.89-30.16S143.93,283.07,143.93,283.07Z"/><g class="cls-25"><path d="M143.93,283.07c1.16-6.56-4.18-11.68-14.24-18.47a237.1,237.1,0,0,0-29.13-16.37c-8.41-3.86-17-3.51-27.79,2-15,7.69-60,35-60,35s67.32,38,80.27,36.3,45.33-22.75,47.89-30.16S143.93,283.07,143.93,283.07Z"/></g><path class="cls-3" d="M86.55,313.56c9.66,8.75,19.76,1.22,35.74-9.15,18.09-11.74,21.64-21.34,21.64-21.34s0,7.19-1.35,10.57-4.28,7.19-17.32,16.19S102.77,323.32,94,325l-6.92-1"/><path class="cls-5" d="M122.29,304.41c18.09-11.74,21.64-21.34,21.64-21.34s0,7.19-1.35,10.57-4.28,7.19-17.32,16.19S102.77,323.32,94,325l-6.92-1-.53-10.47C96.21,322.31,106.31,314.78,122.29,304.41Z"/><path class="cls-3" d="M16.24,374.34l-4.95,11.43a1.36,1.36,0,0,0-.06.29c0,.07,0,.14,0,.21a1.43,1.43,0,0,0,.63.77,3,3,0,0,0,2.69.12,1.09,1.09,0,0,0,.54-.52v0l0-.16,4.6-10.71Z"/><path class="cls-3" d="M140.93,374.82,145.17,386a1,1,0,0,1,0,.29.67.67,0,0,1,0,.2,1.36,1.36,0,0,1-.64.71,2.86,2.86,0,0,1-2.58,0,1.09,1.09,0,0,1-.5-.53v0l0-.15L137.52,376Z"/><path class="cls-3" d="M76.56,415.43v9.25a.93.93,0,0,0,.54.77,3,3,0,0,0,2.66,0,1,1,0,0,0,.55-.77v-9.25A4,4,0,0,0,76.56,415.43Z"/><path class="cls-1" d="M39.74,243.85c3.83,4.46,38.73-5.57,48-6.83,14.91-2,27-3.52,32.1-1.93s7.21,4.17,8.76,10.23c1.83,7.15,2.78,10.79,2.78,10.79s-24.77,9.51-44.3,11.8S39.74,243.85,39.74,243.85Z"/><path class="cls-2" d="M33.23,250.4c-3.87,14.73-7.34,31.87,1.61,41.26,6,6.32,36.31,22.74,55.85,16.27,19.25-6.37,59.1-36,63.1-38.94s7.64-5,7.25-6.28c-5.37-17.84-13.22-19.23-27.79-16-17.81,3.92-56.92,19.88-56.92,19.88Z"/><polygon class="cls-23" points="121.72 155.64 108.28 170.84 86.58 160.54 101.75 139.55 121.72 155.64"/><path class="cls-26" d="M138.39,126.78s5.5,7.95,4.92,8.76-4.49,1.61-4.49,1.61Z"/><circle class="cls-27" cx="138.35" cy="125.45" r="5.98"/><path class="cls-23" d="M123.12,104.81c10.81,2,14,6.68,15.43,23.74C140,146.39,138.32,152,136,154.5c-1.55,1.66-10.34,2.15-14.81,1-5.59-1.4-18.25-5.57-24.33-14.41-7.16-10.41-9.31-24.69-2-30.74C105.09,101.87,118.72,104,123.12,104.81Z"/><path class="cls-26" d="M121.72,155.64c4.65,1.06,11.73.42,13.83-.79a15.78,15.78,0,0,1-7.83-.28,25.44,25.44,0,0,1-7.16-3.16Z"/><path class="cls-8" d="M140.55,111.79l0,0c-3,2.08-6.7,3-10.32,3.51.29,2.9-.63,5.76-1.53,8.53-.62,1.91-2.87,7.92-5.31,4.62-1.77-2.38-3.38-4.55-6.77-4-5.58,1-6.17,8.12-2.54,12.38s6.88,2.51,6.88,2.51.51,7.7-3.54,13.13c0,0-6.06,3.72-14.56.92-5.36-1.76-13.1-8.53-16-13.8C79,125.11,79,111.2,88.51,106.92c.88-7,6.27-10.2,12.47-11.78,8.58-2.18,17.5,3.21,25.8-.34,1.75-.75,3.36-1.82,5.15-2.46a3.49,3.49,0,0,1,3.09,0,3.65,3.65,0,0,1,1.32,2.36,6.67,6.67,0,0,1-.32,5,14.1,14.1,0,0,1,3.9-1.44,4.87,4.87,0,0,1,3.94.89,5.06,5.06,0,0,1,1.59,3.44C145.78,106.19,143.55,109.71,140.55,111.79Z"/><path class="cls-8" d="M88.4,109.24l-6.53-3.65a3.74,3.74,0,0,1,6.53,3.65Z"/><line class="cls-28" x1="123.36" y1="128.47" x2="144.26" y2="124.56"/><path class="cls-23" d="M167.06,164.52c-.56-.94-1.81-1.12-2.85-1.48-1.92-.67-3.42-2.21-5.27-3a10.24,10.24,0,0,0-6.65-.45,16,16,0,0,0-2.23.71,29.56,29.56,0,0,0-4,2c-5.3,3.14-9.28,10.22-14.48,13.47-2,1.22-3.76,2.32-5.54,3.41l12.43,11.09a74.46,74.46,0,0,1,6.14-4.67c3.06-1.82,6.15-1.86,9.59-2.36a47,47,0,0,0,7-1.76,3,3,0,0,0,2.07-1.35,2.08,2.08,0,0,0-1.33-2.56,18.24,18.24,0,0,0-3.64-.49c-.9-.15-3.3.39-3.83-.52-.28-.47.07-1.06.41-1.49,2.16-2.68,4.89-5.57,8.34-6.38a7.22,7.22,0,0,0,3-1.2A2.39,2.39,0,0,0,167.06,164.52Z"/><path class="cls-3" d="M92.67,152.12c-13.21-7.21-25.24-2.58-29.57,6.69-3.92,8.39-12.17,40.84-12.17,40.84C54.89,207.08,92.67,152.12,92.67,152.12Z"/><path class="cls-3" d="M90.69,154.72l2-2.6c-14.91-7.09-28.27,2.22-40,20.51-12.67,19.72-19.33,48-19.39,77.91,0,0,2.53,13.43,19.5,20.15,18,7.12,43.11,4.11,50.93-14.55,0,0,.16-18.64,5.83-27.81,3.66-5.94,12.21-19.14,18.58-28.6,5.53-8.24,9.84-27-1.73-33.85a96,96,0,0,0-9.41-4.8C106.42,164.55,89.33,158.9,90.69,154.72Z"/><path class="cls-29" d="M90.74,154.79l1.93-2.67c-14.91-7.09-28.27,2.22-40,20.51-12.67,19.72-19.33,48-19.39,77.91,0,0,2.53,13.43,19.5,20.15,18,7.12,43.11,4.11,50.93-14.55,0,0,.16-18.64,5.83-27.81,3.66-5.94,12.21-19.14,18.58-28.6,5.53-8.24,9.84-27-1.73-33.85a96,96,0,0,0-9.41-4.8C106.42,164.55,89.38,159,90.74,154.79Z"/><path class="cls-30" d="M132.9,187.78a30.44,30.44,0,0,0,.47-10.86h0a58.34,58.34,0,0,1-11.27,17.2c-6.07,6.39-13.56,11.37-19.19,18.15-6,7.18-10.25,15.86-15.24,23.71-2,3.15-4.74,9.22-8.47,9.46-4.54.3-8.88-5.24-11.35-9.05-3.95-6.09-7.34-13.69-12.25-19-4.29-4.67-10.93-10.65-16.77-7.94h0c-.44,1.55-.85,3.12-1.24,4.71s-.75,3.21-1.09,4.83a1.16,1.16,0,0,1,0,.18c-.33,1.63-.64,3.25-.92,4.89,0,.08,0,.17,0,.26-.27,1.61-.52,3.24-.75,4.86a159.12,159.12,0,0,0-1.49,21.4s2.53,13.43,19.5,20.15c18,7.12,43.11,4.11,50.93-14.55,0,0,.16-18.64,5.83-27.81.57-.93,1.26-2,2-3.27h0l.13-.21c.65-1,1.36-2.13,2.11-3.31l.14-.22.06-.09c1.61-2.52,3.43-5.33,5.31-8.21l.85-1.31c1.82-2.78,3.67-5.59,5.43-8.24l0,0,1.75-2.62.73-1.08h0c.2-.3.4-.61.59-.94l.18-.29.42-.75.18-.33.45-.88.11-.23c.19-.39.37-.8.55-1.21l0-.05,0-.07c.16-.37.32-.75.47-1.14,0-.09.07-.18.11-.28.13-.36.27-.73.4-1.11l0-.09a.56.56,0,0,0,0-.12c.24-.7.46-1.41.66-2.14h0q.3-1.1.54-2.22v-.08Z"/><path class="cls-23" d="M202.09,205.93a29.26,29.26,0,0,1-3.1,3.2c-4.56,4.13-9.89,6.11-16.08,10.14-5,3.25-12.74,8-19.25,12A97.16,97.16,0,0,1,142.71,241c-6.05,1.77-9.43,1.85-13-7.84-1.75-4.75-3.14-9.62-4.65-14.46q-3.39-10.78-6.65-21.61s-8-19.83,9.95-29.78c7.83,4.48,10.82,6.29,13.27,15.67,2.94,11.22,7.7,33.38,7.7,33.38a158.35,158.35,0,0,0,18.59-7.91c2.29-1.14,5.09-1.93,6.72-4a30.62,30.62,0,0,0,2.86-4.45c.77-1.38,1.32-2.89,2.17-4.21a37.61,37.61,0,0,1,5.91-6.51,2.51,2.51,0,0,1,1.43-.85,1.64,1.64,0,0,1,1.45.89c.67,1.15.05,2.29-.29,3.47-.39,1.34-.77,2.69-1.16,4a35.26,35.26,0,0,0,11.48-10.76,5.94,5.94,0,0,1,.9-1.15,1.78,1.78,0,0,1,1.34-.49c1.2.15,2.4,2.1,2.46,3.21a17.29,17.29,0,0,0,.09,3.38c.26,1.05,1,1.91,1.3,2.93a17,17,0,0,1,.69,3.24,11.13,11.13,0,0,1-1.83,6.78A16.07,16.07,0,0,1,202.09,205.93Z"/><path class="cls-3" d="M127.28,166.47c6.86,2.78,11.79,5.91,14.92,16.37s6.51,27.24,6.51,27.24.07,3.51-8.26,8.41a20.45,20.45,0,0,1-16.1,2.17l-6.29-20.19S106.92,173.45,127.28,166.47Z"/><path class="cls-3" d="M87.08,324c-5.5-.27-9.81-4.31-22.89-9.77C40,304.2,21.91,296.14,15,283.49s-11.79-49.18-10.06-65a21.31,21.31,0,0,1,1.18-5.25L4.42,213l4.4-3.74h0c4.51-3.69,11.86-.4,17.39,2.61,15.82,8.61,28.19,17,38,47.17,7.35,22.72,12.2,43.44,22.36,54.52"/><path class="cls-31" d="M6.12,213.24,4.42,213l4.4-3.74h0c4.51-3.69,11.86-.4,17.39,2.61,15.82,8.61,28.19,17,38,47.17,7.35,22.72,12.2,43.44,22.36,54.52L87.08,324c-5.5-.27-9.81-4.31-22.89-9.77C40,304.2,21.91,296.14,15,283.49s-11.79-49.18-10.06-65A21.31,21.31,0,0,1,6.12,213.24Z"/><path class="cls-3" d="M21.64,215.76c15.82,8.61,28.18,17,38,47.17S74.73,319.81,94,325c0,0-8.71,3.46-35.41-7.83-8.5-3.59-18.81-10.15-25.58-14-13.27-7.45-21.32-13.55-22.59-15.83-7-12.6-11.79-49.18-10.07-65S13.72,211.45,21.64,215.76Z"/></g><g id="Speech_Bubble-2" data-name="Speech Bubble"><path class="cls-3" d="M110.54,81.82l-4.37-8.22,3.52-10.14V57.25L98.93,63.46v6.21l4.62,8a.72.72,0,0,0,.32.28h0Z"/><path class="cls-32" d="M110.54,81.82l-4.37-8.22,3.52-10.14V57.25L98.93,63.46v6.21l4.62,8a.72.72,0,0,0,.32.28h0Z"/><path class="cls-3" d="M136.23,7.87A7.11,7.11,0,0,0,133,2.29L130.38.77a7.12,7.12,0,0,0-6.45,0L83.65,24.06a7.13,7.13,0,0,0-3.22,5.59V74a7.13,7.13,0,0,0,3.22,5.59l2.63,1.51a7.12,7.12,0,0,0,6.45,0l13-7.48,4.62,8a.69.69,0,0,0,1.25-.12l4.87-14.08L133,57.77a7.11,7.11,0,0,0,3.23-5.58Z"/><path class="cls-32" d="M80.43,74a7.13,7.13,0,0,0,3.22,5.59l2.63,1.51a7.21,7.21,0,0,0,5.9.26c-1.52.58-2.67-.28-2.67-2.12V34.89a6.62,6.62,0,0,1,.94-3.18l-9.08-5.24a6.62,6.62,0,0,0-.94,3.18Z"/><path class="cls-14" d="M136.12,7c-.37-1.37-1.62-1.81-3.11-1L92.73,29.31a6.3,6.3,0,0,0-2.27,2.41l-9.08-5.24a6.55,6.55,0,0,1,2.28-2.41L123.92.77a7.2,7.2,0,0,1,6.46,0L133,2.29A7.1,7.1,0,0,1,136.12,7Z"/><g id="_" data-name="&lt;/&gt;"><path class="cls-13" d="M95.43,52.29a2.3,2.3,0,0,1,.16-.92,7,7,0,0,1,.47-.86l8.76-14.16a1.31,1.31,0,0,1,.14-.16l.1-.08a.25.25,0,0,1,.33,0,.55.55,0,0,1,.13.43V42a2.49,2.49,0,0,1-.25,1.14c-.17.31-.32.55-.45.74l-4.52,6.89,4.52,2.07a1.84,1.84,0,0,1,.45.22c.16.1.25.38.25.83v3.88a1.33,1.33,0,0,1-.13.58.93.93,0,0,1-.33.39l-.1,0a.33.33,0,0,1-.14,0l-8.76-4a1.28,1.28,0,0,1-.47-.31,1.17,1.17,0,0,1-.16-.73Z"/><path class="cls-13" d="M114.52,30.42a4.69,4.69,0,0,1,.32-.88,1.62,1.62,0,0,1,.64-.68l2.93-1.7a.27.27,0,0,1,.34,0,.56.56,0,0,1,.14.44,1.39,1.39,0,0,1,0,.32l-7.4,31.54a4,4,0,0,1-.31.85,1.57,1.57,0,0,1-.65.72l-2.87,1.65a.26.26,0,0,1-.34,0,.61.61,0,0,1-.14-.44,1.47,1.47,0,0,1,0-.33Z"/><path class="cls-13" d="M130.6,35.52a2.3,2.3,0,0,1-.16.92,6.41,6.41,0,0,1-.47.87l-8.76,14.15a.66.66,0,0,1-.14.17l-.1.07a.25.25,0,0,1-.33,0,.63.63,0,0,1-.13-.43V45.8a2.35,2.35,0,0,1,.25-1.12,8.38,8.38,0,0,1,.45-.73L125,38l-3.83-1.46a1.92,1.92,0,0,1-.45-.23c-.16-.12-.25-.4-.25-.85V30a1.44,1.44,0,0,1,.13-.58.9.9,0,0,1,.33-.4l.1,0h.14l8.76,4a1.18,1.18,0,0,1,.47.32,1.17,1.17,0,0,1,.16.73Z"/></g></g></g></g></svg>